<svg width="100" height="100" viewBox="0 0 100 100" fill="none" xmlns="http://www.w3.org/2000/svg">
<rect width="99.75" height="100" fill="#FCBA5A"/>
<g clip-path="url(#clip0_930_140)">
<path d="M54.5625 54.6875H45.1875C35.6953 54.6875 28 62.3828 28 71.875C28 73.6006 29.3994 75 31.125 75H68.625C70.3506 75 71.75 73.6006 71.75 71.875C71.75 62.3828 64.0547 54.6875 54.5625 54.6875ZM32.7842 70.3125C33.5557 64.1504 38.8203 59.375 45.1875 59.375H54.5625C60.9258 59.375 66.1934 64.1553 66.9648 70.3125H32.7842ZM49.875 50C56.7783 50 62.375 44.4033 62.375 37.5C62.375 30.5967 56.7783 25 49.875 25C42.9717 25 37.375 30.5967 37.375 37.5C37.375 44.4043 42.9707 50 49.875 50ZM49.875 29.6875C54.1826 29.6875 57.6875 33.1924 57.6875 37.5C57.6875 41.8076 54.1826 45.3125 49.875 45.3125C45.5674 45.3125 42.0625 41.8066 42.0625 37.5C42.0625 33.1924 45.5684 29.6875 49.875 29.6875Z" fill="#6F2282"/>
</g>
<defs>
<clipPath id="clip0_930_140">
<rect width="43.75" height="50" fill="white" transform="translate(28 25)"/>
</clipPath>
</defs>
</svg>
